<svg id="Group_1643" data-name="Group 1643" xmlns="http://www.w3.org/2000/svg" xmlns:xlink="http://www.w3.org/1999/xlink" width="339.943" height="709.218" viewBox="0 0 339.943 709.218">
  <defs>
    <clipPath id="clip-path">
      <rect id="Rectangle_1674" data-name="Rectangle 1674" width="339.943" height="709.218" fill="none"/>
    </clipPath>
  </defs>
  <g id="Group_1642" data-name="Group 1642" clip-path="url(#clip-path)">
    <path id="Path_1551" data-name="Path 1551" d="M320.171,553.124l19.772-19.772V35.372A35.374,35.374,0,0,0,304.566,0H35.372A35.37,35.37,0,0,0,0,35.372v497.98l19.768,19.772L0,572.9V673.842a35.371,35.371,0,0,0,35.372,35.376H304.566a35.375,35.375,0,0,0,35.376-35.376V572.9Z" fill="#fff"/>
    <rect id="Rectangle_1633" data-name="Rectangle 1633" width="13.493" height="2.59" transform="translate(122.753 551.181)" fill="#4a4a4a"/>
    <rect id="Rectangle_1634" data-name="Rectangle 1634" width="13.493" height="2.59" transform="translate(95.771 551.181)" fill="#4a4a4a"/>
    <path id="Path_1552" data-name="Path 1552" d="M82.8,133.268l1.943-1.939H74.25v2.585h9.191Z" transform="translate(237.377 419.856)" fill="#4a4a4a"/>
    <rect id="Rectangle_1635" data-name="Rectangle 1635" width="13.493" height="2.59" transform="translate(41.806 551.181)" fill="#4a4a4a"/>
    <rect id="Rectangle_1636" data-name="Rectangle 1636" width="13.493" height="2.59" transform="translate(68.788 551.181)" fill="#4a4a4a"/>
    <rect id="Rectangle_1637" data-name="Rectangle 1637" width="13.493" height="2.59" transform="translate(149.736 551.181)" fill="#4a4a4a"/>
    <rect id="Rectangle_1638" data-name="Rectangle 1638" width="13.493" height="2.59" transform="translate(284.648 551.181)" fill="#4a4a4a"/>
    <rect id="Rectangle_1639" data-name="Rectangle 1639" width="13.489" height="2.59" transform="translate(176.718 551.181)" fill="#4a4a4a"/>
    <path id="Path_1553" data-name="Path 1553" d="M6.188,133.268l-.646.646h9.191v-2.585H4.248Z" transform="translate(13.582 419.856)" fill="#4a4a4a"/>
    <rect id="Rectangle_1640" data-name="Rectangle 1640" width="13.493" height="2.59" transform="translate(257.665 551.181)" fill="#4a4a4a"/>
    <rect id="Rectangle_1641" data-name="Rectangle 1641" width="13.489" height="2.59" transform="translate(230.679 551.181)" fill="#4a4a4a"/>
    <rect id="Rectangle_1642" data-name="Rectangle 1642" width="13.493" height="2.59" transform="translate(203.696 551.181)" fill="#4a4a4a"/>
    <rect id="Rectangle_1643" data-name="Rectangle 1643" width="1.452" height="73.338" transform="translate(47.455 590.809)" fill="#4a4a4a"/>
    <rect id="Rectangle_1644" data-name="Rectangle 1644" width="2.178" height="73.338" transform="translate(52.899 590.809)" fill="#4a4a4a"/>
    <rect id="Rectangle_1645" data-name="Rectangle 1645" width="1.452" height="73.338" transform="translate(59.068 590.809)" fill="#4a4a4a"/>
    <rect id="Rectangle_1646" data-name="Rectangle 1646" width="1.452" height="73.338" transform="translate(66.573 590.809)" fill="#4a4a4a"/>
    <rect id="Rectangle_1647" data-name="Rectangle 1647" width="4.356" height="73.338" transform="translate(73.107 590.809)" fill="#4a4a4a"/>
    <rect id="Rectangle_1648" data-name="Rectangle 1648" width="2.178" height="73.338" transform="translate(80.729 590.809)" fill="#4a4a4a"/>
    <rect id="Rectangle_1649" data-name="Rectangle 1649" width="2.178" height="73.338" transform="translate(88.472 590.809)" fill="#4a4a4a"/>
    <rect id="Rectangle_1650" data-name="Rectangle 1650" width="4.356" height="73.338" transform="translate(98.516 590.809)" fill="#4a4a4a"/>
    <rect id="Rectangle_1651" data-name="Rectangle 1651" width="4.356" height="73.338" transform="translate(109.168 590.809)" fill="#4a4a4a"/>
    <rect id="Rectangle_1652" data-name="Rectangle 1652" width="1.452" height="73.338" transform="translate(117.633 590.809)" fill="#4a4a4a"/>
    <rect id="Rectangle_1653" data-name="Rectangle 1653" width="1.452" height="73.338" transform="translate(123.685 590.809)" fill="#4a4a4a"/>
    <rect id="Rectangle_1654" data-name="Rectangle 1654" width="2.178" height="73.338" transform="translate(133.246 590.809)" fill="#4a4a4a"/>
    <rect id="Rectangle_1655" data-name="Rectangle 1655" width="2.178" height="73.338" transform="translate(141.476 590.809)" fill="#4a4a4a"/>
    <rect id="Rectangle_1656" data-name="Rectangle 1656" width="4.356" height="73.338" transform="translate(148.611 590.809)" fill="#4a4a4a"/>
    <rect id="Rectangle_1657" data-name="Rectangle 1657" width="2.178" height="73.338" transform="translate(155.75 590.809)" fill="#4a4a4a"/>
    <rect id="Rectangle_1658" data-name="Rectangle 1658" width="2.178" height="73.338" transform="translate(163.98 590.809)" fill="#4a4a4a"/>
    <rect id="Rectangle_1659" data-name="Rectangle 1659" width="1.452" height="73.338" transform="translate(172.085 590.809)" fill="#4a4a4a"/>
    <rect id="Rectangle_1660" data-name="Rectangle 1660" width="1.452" height="73.338" transform="translate(181.041 590.809)" fill="#4a4a4a"/>
    <rect id="Rectangle_1661" data-name="Rectangle 1661" width="2.178" height="73.338" transform="translate(188.667 590.809)" fill="#4a4a4a"/>
    <rect id="Rectangle_1662" data-name="Rectangle 1662" width="2.178" height="73.338" transform="translate(193.506 590.809)" fill="#4a4a4a"/>
    <rect id="Rectangle_1663" data-name="Rectangle 1663" width="1.452" height="73.338" transform="translate(200.402 590.809)" fill="#4a4a4a"/>
    <rect id="Rectangle_1664" data-name="Rectangle 1664" width="1.452" height="73.338" transform="translate(205.728 590.809)" fill="#4a4a4a"/>
    <rect id="Rectangle_1665" data-name="Rectangle 1665" width="4.356" height="73.338" transform="translate(213.471 590.809)" fill="#4a4a4a"/>
    <rect id="Rectangle_1666" data-name="Rectangle 1666" width="2.178" height="73.338" transform="translate(223.032 590.809)" fill="#4a4a4a"/>
    <rect id="Rectangle_1667" data-name="Rectangle 1667" width="1.452" height="73.338" transform="translate(241.058 590.809)" fill="#4a4a4a"/>
    <rect id="Rectangle_1668" data-name="Rectangle 1668" width="4.356" height="73.338" transform="translate(247.353 590.809)" fill="#4a4a4a"/>
    <rect id="Rectangle_1669" data-name="Rectangle 1669" width="2.178" height="73.338" transform="translate(255.218 590.809)" fill="#4a4a4a"/>
    <rect id="Rectangle_1670" data-name="Rectangle 1670" width="2.178" height="73.338" transform="translate(267.079 590.809)" fill="#4a4a4a"/>
    <rect id="Rectangle_1671" data-name="Rectangle 1671" width="1.452" height="73.338" transform="translate(275.909 590.809)" fill="#4a4a4a"/>
    <rect id="Rectangle_1672" data-name="Rectangle 1672" width="4.356" height="73.338" transform="translate(282.688 590.809)" fill="#4a4a4a"/>
    <rect id="Rectangle_1673" data-name="Rectangle 1673" width="2.178" height="73.338" transform="translate(290.309 590.809)" fill="#4a4a4a"/>
  </g>
</svg>
