<svg xmlns="http://www.w3.org/2000/svg" xmlns:xlink="http://www.w3.org/1999/xlink" width="24.07" height="25.301" viewBox="0 0 24.07 25.301">
  <defs>
    <clipPath id="clip-path">
      <rect id="Rectangle_1532" data-name="Rectangle 1532" width="24.07" height="25.301" transform="translate(0)" fill="#283f87"/>
    </clipPath>
  </defs>
  <g id="Group_1550" data-name="Group 1550" clip-path="url(#clip-path)">
    <path id="Path_1097" data-name="Path 1097" d="M27.111,284.939c-2.878,1.238-2.788,1.407-7.195,2.005,0,.069,0,.14,0,.211a5.356,5.356,0,0,1-.348,2.149,4.354,4.354,0,0,1-1.729,1.993,16.419,16.419,0,0,1-2.417,1.235A47.63,47.63,0,0,1,7.6,295.125c-.63.158-1.268.281-1.9.421l-.117.029a9.823,9.823,0,0,0,2.187,5.143c.357-.2.706-.394,1.058-.586a65.551,65.551,0,0,1,9.507-4.207c2.434-.863,4.907-1.6,7.409-2.233a.21.21,0,0,0,.163-.137,18.274,18.274,0,0,0,1.286-4.736,13.342,13.342,0,0,0-.063-3.809c0-.021-.008-.042-.014-.071" transform="translate(-4.33 -276.522)" fill="#283f87"/>
    <path id="Path_1098" data-name="Path 1098" d="M43.045,8.047c.405-.038.771-.065,1.135-.108a22.844,22.844,0,0,0,4.81-1.225c.892-.308,1.789-.605,2.693-.873a5.259,5.259,0,0,1,2.106-.2,3.767,3.767,0,0,1,1.361.428.306.306,0,0,0,.138.044l-1-1.614a15.687,15.687,0,0,0,6.873-2.162c-.412-.249-.79-.5-1.187-.713A13.645,13.645,0,0,0,55.4.151a14.008,14.008,0,0,0-3.275-.1A10.815,10.815,0,0,0,47.06,1.722a8.942,8.942,0,0,0-3.729,5.184c-.106.364-.185.736-.286,1.142" transform="translate(-40.835 1.106)" fill="#283f87"/>
    <path id="Path_1099" data-name="Path 1099" d="M1.037,112.558a64.642,64.642,0,0,0,7.353-2.237,14.082,14.082,0,0,0,2.979-1.421,5.149,5.149,0,0,0,1.577-1.5,2.808,2.808,0,0,0,.412-2.2,2.328,2.328,0,0,0-2.244-1.792,4.915,4.915,0,0,0-1.755.31,37.339,37.339,0,0,1-4.588,1.191,17.5,17.5,0,0,1-3.609.318c-.053,0-.107-.006-.176-.01l.091-.632a16.582,16.582,0,0,0,3.1-.447,36.415,36.415,0,0,0,3.68-1.151,15.58,15.58,0,0,1,2.57-.746,4.4,4.4,0,0,1,2.032.075,5.547,5.547,0,0,1,1.236.614l.454.27.015-.019-1.356-2.177c.031-.007.048-.011.065-.014l.318-.044a17.441,17.441,0,0,0,3.981-1,12.6,12.6,0,0,0,2.15-1.081c.05-.031.093-.088.168-.026a3.5,3.5,0,0,1,1.059,1.224A15.057,15.057,0,0,1,21.6,103.18a.133.133,0,0,1-.087.177c-.241.109-.477.231-.718.341a16.943,16.943,0,0,1-6.038,1.6l-.549.036c0,.3.009.595,0,.884a4.241,4.241,0,0,1-.678,2.292,4.738,4.738,0,0,1-1.437,1.316,19.14,19.14,0,0,1-3.3,1.582A50.973,50.973,0,0,1,.873,113.8c-.253.054-.507.1-.778.158L0,112.793c.362-.082.7-.157,1.037-.235m19.732-11.329L20.061,99.7c-.313.251-.594.509-.906.722a6.922,6.922,0,0,1-2.308.957c-.6.146-1.2.259-1.8.386l-.058.013a8.867,8.867,0,0,0,5.785-.554" transform="translate(1.105 -95.175)" fill="#283f87"/>
    <path id="Path_1100" data-name="Path 1100" d="M61.395,295.978a17.855,17.855,0,0,1,0-3.19,19.191,19.191,0,0,1,.557-3.153.1.1,0,0,1,.121-.095,17.137,17.137,0,0,0,3.471-.4,36.124,36.124,0,0,0,3.856-1.052,3.392,3.392,0,0,1,1.577-.183,2.048,2.048,0,0,1,1.661,1.143,2.427,2.427,0,0,1-.087,2.269,3.849,3.849,0,0,1-1.127,1.263,9.97,9.97,0,0,1-2.522,1.354,59.618,59.618,0,0,1-6.2,2c-.417.11-.836.211-1.27.32-.012-.108-.023-.192-.03-.277M65.119,295c.3-.1.6-.2.9-.288a.143.143,0,0,0,.122-.157,25.384,25.384,0,0,1,.709-5.38c.006-.024.009-.05.015-.086a.675.675,0,0,0-.089.009c-.457.109-.914.22-1.371.326a.128.128,0,0,0-.114.113,26.436,26.436,0,0,0-.487,3.27c-.056.694-.082,1.391-.12,2.087,0,.072,0,.144,0,.241.157-.049.3-.09.433-.134m5.493-6.033a1.175,1.175,0,0,0-1.155,1.18,1.2,1.2,0,0,0,1.183,1.185,1.183,1.183,0,1,0-.028-2.365m-6.78.717c-.032.006-.071.067-.078.108-.113.644-.237,1.286-.327,1.933a30.148,30.148,0,0,0-.259,3.669c0,.051,0,.1,0,.17.169-.046.326-.083.478-.135.028-.01.048-.08.05-.123.013-.427.014-.855.031-1.282a22.238,22.238,0,0,1,.583-4.287c.008-.033.012-.066.022-.118-.179.022-.34.035-.5.065" transform="translate(-58.643 -279.381)" fill="#283f87"/>
    <path id="Path_1101" data-name="Path 1101" d="M409.9,362.29a.368.368,0,0,0,.361.374.374.374,0,0,0,.378-.372.369.369,0,0,0-.738,0" transform="translate(-398.28 -351.533)" fill="#283f87"/>
  </g>
</svg>
