<svg xmlns="http://www.w3.org/2000/svg" xmlns:xlink="http://www.w3.org/1999/xlink" width="21.276" height="26.028" viewBox="0 0 21.276 26.028">
  <defs>
    <clipPath id="clip-path">
      <rect id="Rectangle_1534" data-name="Rectangle 1534" width="21.276" height="26.028" fill="#263d89"/>
    </clipPath>
  </defs>
  <g id="Group_1555" data-name="Group 1555" clip-path="url(#clip-path)">
    <path id="Path_1104" data-name="Path 1104" d="M16.781,13.251l1.276-.078v.344c0,.521,0,1.042,0,1.563A1.716,1.716,0,0,0,18.88,16.6a3.155,3.155,0,0,1,1.572,2.945c-.015.588,0,1.178,0,1.788H.019C.014,21.239,0,21.144,0,21.048,0,20.467,0,19.886,0,19.3a3,3,0,0,1,1.464-2.636,1.858,1.858,0,0,0,.922-1.678c0-1.693,0-3.386,0-5.079A7.829,7.829,0,0,1,8.365,2.249c.387-.1.785-.149,1.206-.227V0h1.3c0,.588.013,1.167-.006,1.745-.008.249.081.319.317.346a7.582,7.582,0,0,1,3.508,1.336l-1.049.736a20.361,20.361,0,0,0-2.149-.71,6.535,6.535,0,0,0-7.814,6.32q-.009,2.585,0,5.17a3.122,3.122,0,0,1-1.548,2.836,1.761,1.761,0,0,0-.848,1.505c-.01.248,0,.5,0,.763H19.117a2.1,2.1,0,0,0-.946-2.371,2.856,2.856,0,0,1-1.384-2.37c-.035-.678-.007-1.359-.007-2.056" transform="translate(0)" fill="#263d89"/>
    <path id="Path_1105" data-name="Path 1105" d="M218.734,64.236a4.19,4.19,0,1,1-4.238,3.982,4.2,4.2,0,0,1,4.238-3.982m1.5,2.1c-.488.111-.932.228-1.382.307-.243.042-.236.184-.24.363-.005.216.133.207.279.209a1.823,1.823,0,0,1,.224.032v.34q0,1.217,0,2.434c0,.816,0,.806.824.811.253,0,.321-.081.319-.327-.011-1.282,0-2.564-.006-3.847,0-.088-.01-.177-.018-.322m-1.728,2.777c0-.186-.011-.325,0-.461.025-.256-.065-.367-.336-.345-.255.021-.513,0-.8,0,0-.185,0-.323,0-.46,0-.7,0-.7-.717-.648-.017,0-.034.017-.084.045v1.063c-.289,0-.547.015-.8,0s-.374.075-.333.34a.621.621,0,0,1,0,.18c-.033.232.076.3.293.284.275-.015.551,0,.854,0v1.113h.8V69.111Z" transform="translate(-201.598 -60.373)" fill="#eb2227"/>
    <path id="Path_1106" data-name="Path 1106" d="M109.722,372.434h1.262a2.4,2.4,0,0,0,.982,1.876,2.3,2.3,0,0,0,1.494.447c1.187-.043,1.952-.818,2.269-2.322h1.253A3.641,3.641,0,0,1,111.6,375.6a3.553,3.553,0,0,1-1.882-3.17" transform="translate(-103.123 -350.042)" fill="#263d89"/>
  </g>
</svg>
