<svg xmlns="http://www.w3.org/2000/svg" xmlns:xlink="http://www.w3.org/1999/xlink" width="39.71" height="18.933" viewBox="0 0 39.71 18.933">
  <defs>
    <clipPath id="clip-path">
      <rect id="Rectangle_1547" data-name="Rectangle 1547" width="39.71" height="18.933" fill="#263d89"/>
    </clipPath>
  </defs>
  <g id="Group_1571" data-name="Group 1571" clip-path="url(#clip-path)">
    <path id="Path_1126" data-name="Path 1126" d="M30.7,18.929H15.286c-.089,0-.177,0-.266,0-.39-.008-.619-.184-.624-.479s.233-.488.64-.494a1.045,1.045,0,0,0,.322-.009.417.417,0,0,0,.207-.2.658.658,0,0,0,.008-.262q0-4.828,0-9.657c0-.622.116-.738.742-.738h8.3c.41,0,.41,0,.41-.422,0-1.014,0-2.028.006-3.042,0-.213-.053-.292-.279-.294-.554,0-.671-.136-.671-.685,0-.532,0-1.063,0-1.594A.949.949,0,0,1,25.12,0q5.6,0,11.192,0a.94.94,0,0,1,1.024,1.006q.009.886,0,1.772c0,.384-.174.546-.564.556s-.378.009-.378.393c0,.965,0,1.929,0,2.894,0,.508-.056.466.453.466h8.269c.6,0,.728.123.728.723q0,4.872,0,9.745c0,.4,0,.4.4.4a2.806,2.806,0,0,1,.3.006.5.5,0,0,1,.478.473.49.49,0,0,1-.49.489c-.127.012-.256.006-.384.006H30.7M26,10.647h0c0,2.322,0,4.644-.006,6.967,0,.272.078.348.348.347q4.369-.014,8.738,0c.273,0,.347-.079.347-.349q-.013-6.967,0-13.934c0-.271-.077-.349-.348-.348q-4.367.014-8.735,0c-.275,0-.347.079-.346.348C26,6,26,8.325,26,10.647m18.87,2.392c0-1.545-.006-3.09.006-4.635,0-.268-.071-.35-.346-.349q-3.9.015-7.794,0c-.269,0-.349.073-.349.346q.014,4.605,0,9.211c0,.268.071.351.346.35q3.9-.015,7.794,0c.27,0,.351-.074.349-.347-.012-1.525-.006-3.05-.006-4.576m-19.845,0c0-1.545-.006-3.09.006-4.635,0-.268-.07-.351-.345-.35q-3.9.015-7.794,0c-.268,0-.35.072-.349.346q.014,4.605,0,9.211c0,.267.069.351.345.35q3.9-.015,7.794,0c.269,0,.352-.072.35-.346-.012-1.525-.006-3.051-.006-4.576M30.711.974c-1.781,0-3.561,0-5.342,0-.239,0-.34.062-.321.314a4.55,4.55,0,0,1,0,.737c-.023.272.073.35.346.348,2-.011,3.994-.006,5.991-.006,1.554,0,3.108,0,4.663,0,.239,0,.34-.061.321-.313a4.549,4.549,0,0,1,0-.737c.023-.271-.073-.351-.346-.349-1.771.011-3.541.006-5.312.006" transform="translate(-10.854 0)" fill="#263d89"/>
    <path id="Path_1127" data-name="Path 1127" d="M149.636,72.966a3.757,3.757,0,0,1,.411,0,.465.465,0,0,1,.425.479.454.454,0,0,1-.426.475,6.278,6.278,0,0,1-.793,0,.465.465,0,0,1-.455-.481.471.471,0,0,1,.457-.481c.126-.011.254,0,.382,0v0" transform="translate(-112.178 -55.005)" fill="#263d89"/>
    <path id="Path_1128" data-name="Path 1128" d="M6.588,73.916c-.127,0-.256.01-.382,0a.466.466,0,0,1-.449-.486.457.457,0,0,1,.432-.471,6.225,6.225,0,0,1,.793,0,.481.481,0,0,1-.012.961c-.127.01-.255,0-.382,0v0" transform="translate(-4.34 -54.992)" fill="#263d89"/>
    <path id="Path_1129" data-name="Path 1129" d="M157.929,72.981a.482.482,0,1,1-.491.473.47.47,0,0,1,.491-.473" transform="translate(-118.693 -55.02)" fill="#263d89"/>
    <path id="Path_1130" data-name="Path 1130" d="M.964,73.464a.47.47,0,0,1-.484.48.482.482,0,1,1,0-.963.471.471,0,0,1,.481.483" transform="translate(0 -55.021)" fill="#263d89"/>
    <path id="Path_1131" data-name="Path 1131" d="M74.357,30.351c-.221.178-.384.311-.55.442a.5.5,0,0,1-.755-.016.5.5,0,0,1,.117-.725c.419-.358.844-.707,1.265-1.062a.513.513,0,0,1,.9.432c0,1.111,0,2.223-.005,3.334,0,.23.063.322.3.3a4.8,4.8,0,0,1,.649,0,.466.466,0,0,1,.469.47.458.458,0,0,1-.475.491q-1.431.014-2.862,0a.455.455,0,0,1-.463-.474.468.468,0,0,1,.481-.488c.236-.012.473.009.707-.013.078-.007.212-.1.213-.156.014-.822.01-1.644.01-2.54" transform="translate(-54.991 -21.716)" fill="#263d89"/>
    <path id="Path_1132" data-name="Path 1132" d="M70.576,62.444h-2.6a1.5,1.5,0,0,1-.294-.011.446.446,0,0,1-.41-.463.451.451,0,0,1,.417-.457,1.19,1.19,0,0,1,.236-.009h5.284a1.988,1.988,0,0,1,.206,0,.474.474,0,0,1,.456.454.463.463,0,0,1-.464.474c-.294.015-.59.006-.885.006H70.576" transform="translate(-50.718 -46.367)" fill="#263d89"/>
    <path id="Path_1133" data-name="Path 1133" d="M74.158,54.768c-.5,0-1,0-1.506,0-.384,0-.6-.172-.6-.46s.21-.472.588-.473q1.535-.007,3.071,0c.379,0,.593.183.588.474s-.218.456-.6.46c-.512,0-1.024,0-1.535,0" transform="translate(-54.318 -40.582)" fill="#263d89"/>
    <path id="Path_1134" data-name="Path 1134" d="M116.6,45.554c-.285,0-.571,0-.856,0-.393-.005-.565-.168-.571-.552q-.01-.664,0-1.328a.5.5,0,0,1,.547-.553c.364-.01.728-.011,1.092,0,.194.005.257-.068.252-.259-.017-.741.086-.6-.6-.612-.266-.006-.532.005-.8,0a.474.474,0,0,1-.489-.481.467.467,0,0,1,.484-.486q.944-.013,1.889,0a.453.453,0,0,1,.482.486q.016.915,0,1.83c0,.329-.172.493-.524.511s-.728.011-1.092.008c-.171,0-.274.031-.275.242s.117.231.282.229c.364,0,.728-.006,1.092,0a.485.485,0,1,1,0,.968c-.157,0-.315,0-.472,0H116.6" transform="translate(-86.825 -31.115)" fill="#263d89"/>
    <path id="Path_1135" data-name="Path 1135" d="M111.529,63.373c-.855,0-1.71.007-2.565,0a.469.469,0,0,1-.441-.725.631.631,0,0,1,.438-.231c1.71-.016,3.42-.013,5.13-.008a.483.483,0,1,1,0,.964c-.855.007-1.71,0-2.565,0" transform="translate(-81.749 -47.045)" fill="#263d89"/>
    <path id="Path_1136" data-name="Path 1136" d="M37.5,43.3c0,.511.006,1.023,0,1.534-.007.457-.177.628-.627.633q-.781.01-1.563,0c-.384,0-.605-.195-.6-.5s.223-.492.605-.5c.3,0,.591-.016.885,0,.251.016.315-.082.318-.321s-.065-.362-.332-.341a6.458,6.458,0,0,1-.737,0c-.356-.013-.582-.207-.587-.493s.23-.5.6-.5c.266,0,.532-.014.8,0,.29.017.252-.177.248-.351s.057-.371-.24-.359c-.324.014-.649.007-.973,0-.363-.008-.578-.192-.585-.488s.206-.5.565-.506c.551-.01,1.1-.011,1.652,0,.4.008.568.184.575.592.011.531,0,1.062,0,1.593Z" transform="translate(-26.161 -30.992)" fill="#263d89"/>
    <path id="Path_1137" data-name="Path 1137" d="M30.913,62.4c.855,0,1.71-.006,2.565,0,.419,0,.678.418.44.723a.752.752,0,0,1-.524.234c-1.425.019-2.85.011-4.275.011-.246,0-.491,0-.737,0-.347-.008-.548-.188-.549-.482a.48.48,0,0,1,.544-.486c.845-.005,1.69,0,2.536,0" transform="translate(-20.983 -47.043)" fill="#263d89"/>
  </g>
</svg>
