<svg xmlns="http://www.w3.org/2000/svg" xmlns:xlink="http://www.w3.org/1999/xlink" width="26.028" height="26.028" viewBox="0 0 26.028 26.028">
  <defs>
    <clipPath id="clip-path">
      <rect id="Rectangle_1533" data-name="Rectangle 1533" width="26.028" height="26.028" fill="#263d89"/>
    </clipPath>
  </defs>
  <g id="Group_1553" data-name="Group 1553" clip-path="url(#clip-path)">
    <path id="Path_1102" data-name="Path 1102" d="M23.733,6.182a2.368,2.368,0,0,1-.526,1.462c-.191.247-.394.484-.574.739a.349.349,0,0,0-.036.269c.062.2.174.38.23.578a.361.361,0,0,0,.377.282,9.314,9.314,0,0,1,1.116.149,2.1,2.1,0,0,1,1.7,2.134c-.03.8-.036,1.6,0,2.4a2.16,2.16,0,0,1-2,2.227c-.294.033-.587.073-.882.1a.287.287,0,0,0-.294.22,3.3,3.3,0,0,1-.239.575.3.3,0,0,0,.055.382c.2.231.384.471.566.714a2.293,2.293,0,0,1,.445,1.945,1.813,1.813,0,0,1-.516.9c-.6.592-1.212,1.166-1.777,1.786a2.156,2.156,0,0,1-2.914.222q-.413-.308-.811-.638a.235.235,0,0,0-.3-.041,3.225,3.225,0,0,1-.574.24.346.346,0,0,0-.271.361,10.168,10.168,0,0,1-.149,1.116,2.1,2.1,0,0,1-2.148,1.717c-.8-.032-1.6-.036-2.4,0a2.156,2.156,0,0,1-2.213-1.988c-.036-.31-.076-.619-.107-.929a.251.251,0,0,0-.2-.254.767.767,0,0,1-.267-.1c-.381-.28-.677-.151-.993.14a2.847,2.847,0,0,1-1.447.805,1.962,1.962,0,0,1-1.829-.541c-.592-.6-1.166-1.212-1.786-1.777a2.144,2.144,0,0,1-.252-2.855c.209-.292.435-.574.663-.852a.254.254,0,0,0,.046-.319,3.652,3.652,0,0,1-.248-.6.3.3,0,0,0-.311-.232c-.381-.041-.765-.074-1.14-.151A2.1,2.1,0,0,1,0,14.231c.032-.807.035-1.617,0-2.423a2.15,2.15,0,0,1,1.952-2.2c.325-.043.653-.066.975-.123A.381.381,0,0,0,3.161,9.3c.106-.205.173-.43.275-.638a.239.239,0,0,0-.042-.3c-.214-.259-.425-.521-.623-.792a2.273,2.273,0,0,1-.419-1.905,1.81,1.81,0,0,1,.516-.9C3.463,4.174,4.08,3.6,4.644,2.98a2.165,2.165,0,0,1,2.953-.2c.254.194.507.39.753.6a.263.263,0,0,0,.339.047,2.654,2.654,0,0,1,.552-.23c.2-.054.253-.174.27-.361A9.783,9.783,0,0,1,9.65,1.767,2.082,2.082,0,0,1,11.808.009c.8,0,1.6.029,2.4-.007a2.157,2.157,0,0,1,2.214,1.988c.034.294.077.587.1.882a.3.3,0,0,0,.257.317.763.763,0,0,1,.266.107.646.646,0,0,0,.913-.129,2.941,2.941,0,0,1,1.437-.825,1.978,1.978,0,0,1,1.893.55q.926.94,1.867,1.867a1.9,1.9,0,0,1,.581,1.424M6.18,3.345a2.645,2.645,0,0,0-.595.322C4.932,4.292,4.3,4.939,3.661,5.578a.737.737,0,0,0-.22.746,2.167,2.167,0,0,0,.3.643c.257.366.545.711.827,1.059a.639.639,0,0,1,.083.734q-.3.665-.561,1.349a.637.637,0,0,1-.578.458c-.5.053-1,.1-1.5.189A.955.955,0,0,0,1.145,11.8c0,.832.008,1.664,0,2.5a.861.861,0,0,0,.541.854,2.291,2.291,0,0,0,.622.16c.419.062.841.1,1.262.152a.581.581,0,0,1,.5.389c.2.488.4.976.6,1.461a.593.593,0,0,1-.08.651q-.246.31-.49.622c-.143.182-.293.36-.428.548a.982.982,0,0,0,.111,1.433c.588.589,1.179,1.174,1.763,1.767a.8.8,0,0,0,.853.235,2.029,2.029,0,0,0,.571-.287c.363-.262.71-.546,1.058-.828a.638.638,0,0,1,.735-.077c.436.2.877.387,1.326.553a.645.645,0,0,1,.476.589c.05.493.1.987.184,1.476a.962.962,0,0,0,1.058.887c.84,0,1.68-.005,2.52,0a.785.785,0,0,0,.753-.421,2.347,2.347,0,0,0,.226-.7c.072-.425.109-.857.155-1.286a.6.6,0,0,1,.419-.53c.475-.188.948-.382,1.416-.587a.6.6,0,0,1,.672.075q.517.41,1.037.816a2.485,2.485,0,0,0,.213.156.959.959,0,0,0,1.337-.153c.594-.594,1.186-1.19,1.782-1.782a.786.786,0,0,0,.235-.83,2.017,2.017,0,0,0-.28-.575c-.266-.37-.555-.723-.842-1.078a.639.639,0,0,1-.073-.735c.2-.443.386-.895.56-1.349a.625.625,0,0,1,.561-.446c.493-.053.986-.106,1.476-.183a.969.969,0,0,0,.9-1.067c0-.832-.007-1.664,0-2.5A.84.84,0,0,0,24.4,10.9a1.974,1.974,0,0,0-.591-.18c-.434-.067-.873-.111-1.31-.156a.611.611,0,0,1-.558-.449c-.113-.324-.23-.649-.374-.96-.37-.8-.436-.73.186-1.5.206-.255.414-.509.606-.775a.966.966,0,0,0,.01-1.3c-.641-.649-1.289-1.291-1.934-1.935a.713.713,0,0,0-.7-.214,2.163,2.163,0,0,0-.667.3c-.367.255-.712.544-1.059.827a.65.65,0,0,1-.755.079c-.435-.2-.879-.383-1.327-.551a.635.635,0,0,1-.464-.573c-.052-.493-.1-.987-.184-1.476a.967.967,0,0,0-1.071-.9H11.853a.981.981,0,0,0-1.11.938c-.075.482-.126.967-.179,1.452a.615.615,0,0,1-.432.547c-.461.18-.921.365-1.372.568a.641.641,0,0,1-.734-.083c-.354-.287-.7-.583-1.078-.842a5.836,5.836,0,0,0-.769-.381" transform="translate(0 0)" fill="#263d89"/>
    <path id="Path_1103" data-name="Path 1103" d="M50.05,44.924a5.134,5.134,0,1,1-5.129,5.133,5.133,5.133,0,0,1,5.129-5.133m-3.993,5.119a4,4,0,1,0,4.012-3.984,3.995,3.995,0,0,0-4.012,3.984" transform="translate(-37.041 -37.044)" fill="#263d89"/>
  </g>
</svg>
